<?xml version="1.0" standalone="no"?>
<!DOCTYPE svg PUBLIC "-//W3C//DTD SVG 20010904//EN"
 "http://www.w3.org/TR/2001/REC-SVG-20010904/DTD/svg10.dtd">
<svg version="1.0" xmlns="http://www.w3.org/2000/svg"
 width="512.000000pt" height="512.000000pt" viewBox="0 0 512.000000 512.000000"
 preserveAspectRatio="xMidYMid meet">
<metadata>
Created by potrace 1.11, written by Peter Selinger 2001-2013
</metadata>
<g transform="translate(0.000000,512.000000) scale(0.100000,-0.100000)"
fill="#000000" stroke="none">
<path d="M91 4010 c-18 -4 -45 -17 -60 -28 l-26 -19 -1 -1383 c-1 -760 1
-1391 4 -1402 5 -20 42 -43 88 -54 62 -14 342 -13 401 2 101 26 93 -28 93 650
l0 594 540 2 c474 3 540 1 541 -12 0 -8 1 -277 1 -598 l1 -583 29 -24 c16 -14
35 -25 41 -26 7 0 21 -3 32 -6 42 -11 322 -11 378 -1 71 14 107 44 108 90 4
222 0 2731 -5 2746 -4 11 -23 28 -44 39 -32 16 -63 18 -247 18 -183 0 -214 -2
-243 -18 -18 -10 -37 -28 -41 -40 -5 -12 -8 -255 -7 -540 1 -286 -2 -524 -6
-530 -5 -8 -153 -12 -530 -12 -288 -1 -529 1 -535 3 -10 3 -13 120 -13 541 0
613 7 569 -90 590 -58 12 -357 13 -409 1z"/>
<path d="M2330 4011 l-26 -6 1 -230 c0 -148 4 -241 12 -260 20 -54 26 -70 28
-75 4 -19 28 -89 35 -105 5 -11 21 -56 35 -100 15 -44 63 -183 107 -310 44
-126 88 -255 98 -285 42 -126 112 -326 120 -345 4 -11 10 -29 13 -40 3 -11 37
-112 77 -225 39 -113 82 -236 95 -275 33 -99 181 -525 194 -557 25 -66 110
-88 330 -84 230 3 236 7 297 171 10 28 19 52 19 55 0 5 54 156 95 265 10 28
44 122 75 210 31 88 70 198 87 245 17 47 41 117 55 155 14 39 30 84 36 100 7
17 12 32 13 35 0 3 3 12 7 20 3 8 29 80 57 160 28 80 62 174 75 210 13 36 37
106 55 155 17 50 37 106 45 125 22 58 71 196 130 364 30 88 57 162 60 164 5 5
9 -83 6 -103 -2 -5 -2 -95 -1 -200 1 -104 1 -197 1 -205 0 -8 0 -60 0 -115 1
-55 1 -107 1 -115 -1 -8 -1 -152 -1 -320 0 -168 0 -312 0 -320 0 -8 0 -100 0
-205 0 -104 0 -197 0 -205 0 -8 0 -60 0 -115 1 -55 1 -107 0 -115 0 -19 1
-331 2 -347 2 -48 108 -73 301 -69 127 2 158 6 197 23 25 11 48 29 51 39 3 11
4 618 4 1349 l-1 1330 -23 47 c-12 25 -34 55 -49 66 -64 43 -84 46 -368 45
-289 0 -336 -5 -405 -49 -87 -54 -111 -100 -260 -499 -72 -192 -135 -359 -140
-370 -5 -11 -24 -63 -43 -115 -19 -52 -51 -135 -70 -185 -19 -49 -46 -121 -60
-160 -15 -38 -32 -83 -38 -100 -7 -16 -13 -34 -15 -40 -2 -5 -37 -100 -79
-210 -42 -110 -83 -220 -92 -245 -8 -25 -20 -54 -25 -64 -13 -25 -13 -25 -77
154 -29 80 -68 188 -87 240 -20 52 -40 109 -46 125 -5 17 -14 39 -19 50 -5 11
-56 153 -115 315 -58 162 -120 331 -136 375 -16 44 -33 91 -38 105 -5 14 -23
63 -40 110 -17 47 -35 96 -40 110 -62 190 -104 282 -152 340 -46 55 -139 97
-237 106 -31 3 -67 6 -81 8 -14 1 -36 0 -50 -3z"/>
</g>
</svg>
